<?xml version="1.0" standalone="no"?>
<!DOCTYPE svg PUBLIC "-//W3C//DTD SVG 20010904//EN"
 "http://www.w3.org/TR/2001/REC-SVG-20010904/DTD/svg10.dtd">
<svg version="1.0" xmlns="http://www.w3.org/2000/svg"
 width="81.000000pt" height="81.000000pt" viewBox="0 0 81.000000 81.000000"
 preserveAspectRatio="xMidYMid meet">
<metadata>
Created by potrace 1.14, written by Peter Selinger 2001-2017
</metadata>
<g transform="translate(0.000000,81.000000) scale(0.100000,-0.100000)"
fill="#000000" stroke="none">
<path d="M435 724 c-17 -76 -62 -132 -138 -170 -52 -27 -103 -75 -113 -108 -3
-11 -16 -32 -28 -44 -17 -19 -21 -36 -20 -87 0 -53 6 -72 30 -112 55 -89 160
-128 264 -97 49 15 130 76 130 100 0 8 4 14 9 14 13 0 21 53 9 67 -7 9 -5 25
6 54 16 39 22 121 12 164 -2 11 -5 23 -5 28 -1 4 -7 7 -14 7 -8 0 -13 -11 -13
-26 1 -34 -27 -54 -52 -38 -17 12 -20 45 -7 94 16 62 0 124 -44 164 -20 18
-20 18 -26 -10z"/>
</g>
</svg>
