<?xml version="1.0" standalone="no"?>
<!DOCTYPE svg PUBLIC "-//W3C//DTD SVG 20010904//EN"
 "http://www.w3.org/TR/2001/REC-SVG-20010904/DTD/svg10.dtd">
<svg version="1.0" xmlns="http://www.w3.org/2000/svg"
 width="366.000000pt" height="400.000000pt" viewBox="0 0 366.000000 400.000000"
 preserveAspectRatio="xMidYMid meet">

<g transform="translate(0.000000,400.000000) scale(0.100000,-0.100000)"
fill="#000000" stroke="none">
<path d="M2706 3774 c-150 -124 -361 -342 -522 -539 -98 -120 -262 -364 -342
-507 l-32 -57 24 -28 c13 -16 36 -35 50 -42 24 -13 28 -11 83 35 340 285 628
628 862 1028 l52 88 -41 39 c-22 21 -47 39 -53 39 -7 0 -44 -25 -81 -56z"/>
<path d="M840 3503 c-8 -3 -26 -15 -38 -27 -86 -77 -63 -211 42 -251 58 -22
105 -14 151 26 80 71 67 196 -25 244 -28 15 -100 19 -130 8z"/>
<path d="M1594 3500 c-27 -11 -72 -65 -80 -96 -10 -39 2 -100 25 -133 27 -38
98 -66 145 -57 41 8 90 46 111 87 48 93 -27 210 -134 208 -25 0 -55 -4 -67 -9z"/>
<path d="M3340 3326 c-176 -77 -365 -200 -521 -340 -89 -79 -215 -217 -243
-264 -9 -15 51 -102 71 -102 25 0 210 87 298 140 186 113 350 251 499 422 l58
68 -26 45 c-39 66 -50 69 -136 31z"/>
<path d="M395 2895 c-111 -39 -139 -176 -51 -253 71 -62 183 -43 228 38 30 55
21 131 -22 175 -19 19 -41 37 -49 39 -50 13 -70 13 -106 1z"/>
<path d="M1157 2895 c-107 -37 -139 -156 -66 -240 92 -104 259 -40 259 100 0
105 -96 174 -193 140z"/>
<path d="M520 2270 c-289 -5 -298 -7 -336 -66 -14 -21 -16 -42 -11 -132 24
-405 215 -798 522 -1073 61 -55 190 -149 284 -206 1 -1 -3 -50 -10 -108 -10
-81 -10 -119 -2 -160 27 -127 103 -229 213 -285 101 -51 136 -54 640 -54 402
0 473 3 528 17 160 43 271 157 303 314 10 48 10 84 1 169 -7 59 -11 108 -9
109 1 1 49 33 107 71 217 143 421 375 535 609 99 202 152 394 162 589 5 91 3
114 -11 140 -32 60 -33 60 -366 67 -353 8 -2158 7 -2550 -1z m2684 -300 c-45
-382 -229 -736 -500 -960 -131 -108 -147 -127 -140 -155 6 -22 3 -26 -23 -31
-34 -7 -37 -13 -46 -99 -13 -130 -26 -167 -75 -216 -61 -61 -92 -67 -295 -57
-88 5 -297 5 -465 2 -364 -9 -361 -9 -408 15 -76 39 -104 89 -122 221 -17 127
-17 127 -48 133 -25 5 -28 10 -25 34 4 34 -3 43 -93 115 -274 219 -468 546
-529 895 -8 49 -15 102 -15 118 l0 30 1394 0 1395 0 -5 -45z"/>
</g>
</svg>
